<svg xmlns="http://www.w3.org/2000/svg" viewBox="0 0 512 512" width="512" height="512">
  <defs>
    <clipPath id="burp-clip">
      <rect width="512" height="512" rx="112" />
    </clipPath>
  </defs>
  <g clip-path="url(#burp-clip)">
    <!-- Base Left Dark, Right Orange -->
    <rect x="0" y="0" width="256" height="512" fill="#2e2e2e"/>
    <rect x="256" y="0" width="256" height="512" fill="#ff6633"/>
    
    <!-- Lightning divider profiles -->
    <path fill="#2e2e2e" d="M256,0 L256,170 L196,195 L256,195 L256,335 L196,335 L256,435 L256,512 L0,512 L0,0 Z"/>
    <path fill="#ff6633" d="M256,0 L256,170 L196,195 L256,195 L256,335 L196,335 L256,435 L256,512 L512,512 L512,0 Z"/>
    
    <!-- Crisp White Interlocking Ribbon -->
    <polyline points="256,0 256,170 196,195 256,195 256,335 196,335 256,435 256,512" 
              fill="none" stroke="#ffffff" stroke-width="22" stroke-linecap="square" stroke-linejoin="miter"/>
  </g>
</svg>